<?xml version="1.0" standalone="no"?>
<!DOCTYPE svg PUBLIC "-//W3C//DTD SVG 20010904//EN"
 "http://www.w3.org/TR/2001/REC-SVG-20010904/DTD/svg10.dtd">
 <svg xmlns="http://www.w3.org/2000/svg" version="1.1" viewBox="0 0 5.9547776 5.9547743" height="22.506233" width="22.506247">
   <g transform="translate(-0.08289926,-290.98056)">
     <path fill="#f9f9f9" fill-opacity="0" stroke="#000000" stroke-width="0.05"
       d="m 6.009665,293.95795 a 2.9493768,2.9493768 0 0 1 -2.9493768,2.94937 2.9493768,2.9493768 0 0 1 -2.94937683,-2.94937 2.9493768,2.9493768 0 0 1 2.94937683,-2.94938 2.9493768,2.9493768 0 0 1 2.9493768,2.94938 z" />
     <g fill="#1a1a1a" fill-opacity="1" stroke="none" transform="matrix(0.44424846,0,0,0.44424846,-3.8357699,289.23043)" aria-label="B">
       <path fill="#1a1a1a"
         d="m 12.837417,6.9385916 -0.984,-0.144 v -0.6 h 1.62 q 0.408,0 1.032,-0.048 0.576,-0.048 0.852,-0.048 1.656,0 2.364,0.516 0.72,0.516 0.72,1.512 0,0.852 -0.492,1.464 -0.492,0.6120004 -1.344,0.7680004 1.152,-0.024 1.812,0.54 0.66,0.564 0.66,1.536 0,1.212 -0.864,1.98 -0.852,0.768 -2.832,0.768 -0.432,0 -0.828,-0.036 -0.936,-0.036 -1.116,-0.036 h -1.596 v -0.588 l 0.996,-0.12 z m 1.272,3.1920004 q 0.168,0.012 0.684,0.012 h 0.66 q 0.84,0 1.272,-0.4680004 0.432,-0.468 0.432,-1.332 0,-0.84 -0.432,-1.224 -0.432,-0.396 -1.476,-0.396 -0.432,0 -0.888,0.048 l -0.252,0.024 z m 0,4.308 q 0.276,0.096 1.248,0.096 1.212,0 1.752,-0.492 0.552,-0.504 0.552,-1.44 0,-0.924 -0.48,-1.344 -0.468,-0.42 -1.524,-0.42 -1.224,0 -1.548,0.024 z" />
     </g>
   </g>
 </svg>
