<?xml version="1.0" encoding="UTF-8" standalone="no"?>
<!-- Created with Inkscape (http://www.inkscape.org/) -->

<svg
   xmlns="http://www.w3.org/2000/svg"
   width="468"
   height="60"
   viewBox="0 0 123.825 15.875"
   version="1.1">
  <g
     transform="translate(0,-281.125)">
    <g
       aria-label="This is a band."
       transform="matrix(0.40564879,0,0,0.40564879,-5.3115558,138.4593)">
      <path class="change-fill" fill="#000000"
         d="m 41.105859,360.20484 -6.88,0.24 -1.4,8.36 h -2.64 l 0.68,-10.72 h 24.92 l 0.48,10.72 h -2.52 l -1.32,-8.36 -6.92,-0.24 v 25.24 l 5.68,0.4 v 1.96 h -15.28 v -1.96 l 5.2,-0.4 z" />
      <path class="change-fill" fill="#000000"
         d="m 61.145837,357.96484 -3.36,-0.44 v -1.72 l 6.52,-0.76 h 0.08 l 0.88,0.6 v 9.28 l -0.16,3.4 q 1.28,-1.16 3.52,-2.2 2.24,-1.04 4.52,-1.04 2.52,0 3.92,0.96 1.4,0.96 1.96,2.96 0.56,1.96 0.56,5.32 v 11.16 l 2.8,0.36 v 1.96 h -9.56 v -1.96 l 2.6,-0.36 v -11.2 q 0,-2.36 -0.32,-3.68 -0.32,-1.36 -1.2,-2 -0.88,-0.68 -2.64,-0.68 -1.44,0 -3.08,0.72 -1.64,0.72 -2.88,1.68 v 15.16 l 2.76,0.36 v 1.96 h -9.32 v -1.96 l 2.4,-0.32 z" />
      <path class="change-fill" fill="#000000"
         d="m 90.065776,361.60484 q -1.28,0 -1.92,-0.72 -0.64,-0.72 -0.64,-1.84 0,-1.28 0.76,-2.12 0.8,-0.84 2.16,-0.84 1.36,0 2,0.72 0.64,0.72 0.64,1.84 0,1.36 -0.8,2.16 -0.76,0.8 -2.16,0.8 z m -1.6,7.08 -3.04,-0.72 v -2.12 l 6.2,-0.76 h 0.08 l 0.92,0.72 v 19.72 l 3.2,0.32 v 1.96 h -10.6 v -1.96 l 3.24,-0.36 z" />
      <path class="change-fill" fill="#000000"
         d="m 102.38571,384.60484 q 0.4,0.6 1.68,1.08 1.32,0.48 2.76,0.48 2.28,0 3.36,-0.88 1.08,-0.88 1.08,-2.44 0,-1.08 -0.68,-1.88 -0.68,-0.8 -1.92,-1.4 -1.2,-0.64 -3.48,-1.52 -3.08,-1.16 -4.52,-2.76 -1.400003,-1.64 -1.400003,-4.28 0,-1.76 1.040003,-3.08 1.08,-1.32 2.92,-2.04 1.88,-0.76 4.16,-0.76 1.84,0 3.2,0.28 1.4,0.28 2.24,0.56 0.84,0.28 1.12,0.36 v 4.96 h -2.44 l -0.8,-2.96 q -0.24,-0.48 -1.28,-0.8 -1.04,-0.36 -2.32,-0.36 -1.8,0 -2.92,0.8 -1.08,0.8 -1.08,2.16 0,1.2 0.56,2 0.6,0.76 1.48,1.24 0.88,0.48 2.4,1.12 l 0.8,0.32 q 2.24,0.88 3.64,1.68 1.4,0.8 2.32,2.12 0.96,1.28 0.96,3.16 0,2.96 -2.32,4.72 -2.28,1.76 -6.28,1.76 -1.96,0 -4.12,-0.52 -2.12,-0.56 -3.480003,-1.12 v -5.12 h 2.600003 z" />
      <path class="change-fill" fill="#000000"
         d="m 133.06565,361.60484 q -1.28,0 -1.92,-0.72 -0.64,-0.72 -0.64,-1.84 0,-1.28 0.76,-2.12 0.8,-0.84 2.16,-0.84 1.36,0 2,0.72 0.64,0.72 0.64,1.84 0,1.36 -0.8,2.16 -0.76,0.8 -2.16,0.8 z m -1.6,7.08 -3.04,-0.72 v -2.12 l 6.2,-0.76 h 0.08 l 0.92,0.72 v 19.72 l 3.2,0.32 v 1.96 h -10.6 v -1.96 l 3.24,-0.36 z" />
      <path class="change-fill" fill="#000000"
         d="m 145.38559,384.60484 q 0.4,0.6 1.68,1.08 1.32,0.48 2.76,0.48 2.28,0 3.36,-0.88 1.08,-0.88 1.08,-2.44 0,-1.08 -0.68,-1.88 -0.68,-0.8 -1.92,-1.4 -1.2,-0.64 -3.48,-1.52 -3.08,-1.16 -4.52,-2.76 -1.4,-1.64 -1.4,-4.28 0,-1.76 1.04,-3.08 1.08,-1.32 2.92,-2.04 1.88,-0.76 4.16,-0.76 1.84,0 3.2,0.28 1.4,0.28 2.24,0.56 0.84,0.28 1.12,0.36 v 4.96 h -2.44 l -0.8,-2.96 q -0.24,-0.48 -1.28,-0.8 -1.04,-0.36 -2.32,-0.36 -1.8,0 -2.92,0.8 -1.08,0.8 -1.08,2.16 0,1.2 0.56,2 0.6,0.76 1.48,1.24 0.88,0.48 2.4,1.12 l 0.8,0.32 q 2.24,0.88 3.64,1.68 1.4,0.8 2.32,2.12 0.96,1.28 0.96,3.16 0,2.96 -2.32,4.72 -2.28,1.76 -6.28,1.76 -1.96,0 -4.12,-0.52 -2.12,-0.56 -3.48,-1.12 v -5.12 h 2.6 z" />
      <path class="change-fill" fill="#000000"
         d="m 171.34553,381.80484 q 0,-3.76 3.76,-5.52 3.76,-1.8 9.52,-1.92 v -1.12 q 0,-1.88 -0.4,-2.96 -0.4,-1.08 -1.4,-1.56 -0.96,-0.52 -2.76,-0.52 -2.04,0 -3.68,0.6 -1.6,0.56 -3.2,1.4 l -1,-2.08 q 0.52,-0.44 1.92,-1.16 1.4,-0.72 3.24,-1.28 1.84,-0.56 3.68,-0.56 2.84,0 4.48,0.8 1.68,0.76 2.4,2.48 0.72,1.72 0.72,4.6 v 12.84 h 2.36 v 1.76 q -0.8,0.2 -2.04,0.4 -1.2,0.2 -2.12,0.2 -1.12,0 -1.52,-0.36 -0.4,-0.32 -0.4,-1.48 v -1.32 q -1.2,1.2 -2.96,2.2 -1.72,1 -3.92,1 -2.88,0 -4.8,-1.64 -1.88,-1.68 -1.88,-4.8 z m 8.4,3.72 q 1.04,0 2.4,-0.64 1.36,-0.64 2.48,-1.52 v -6.88 q -4.36,0 -6.6,1.36 -2.2,1.32 -2.2,3.48 0,2.16 1.04,3.2 1.08,1 2.88,1 z" />
      <path class="change-fill" fill="#000000"
         d="m 201.38547,355.80484 6.4,-0.76 h 0.08 l 0.92,0.6 v 12.04 q 1.2,-1.16 2.84,-1.92 1.68,-0.76 3.72,-0.76 2.4,0 4.36,1.16 2,1.16 3.16,3.6 1.2,2.44 1.2,6.16 0,3.44 -1.44,6.24 -1.4,2.8 -4.04,4.44 -2.64,1.64 -6.12,1.64 -2.76,0 -5.04,-0.52 -2.28,-0.56 -2.76,-1 v -28.8 l -3.28,-0.44 z m 12.32,12.04 q -1.52,0 -2.84,0.72 -1.28,0.68 -2.08,1.56 v 14.72 q 0.24,0.56 1.36,0.92 1.16,0.32 2.6,0.32 3.08,0 4.96,-2.48 1.88,-2.48 1.88,-7.24 0,-4.28 -1.64,-6.4 -1.64,-2.12 -4.24,-2.12 z" />
      <path class="change-fill" fill="#000000"
         d="m 227.54541,381.80484 q 0,-3.76 3.76,-5.52 3.76,-1.8 9.52,-1.92 v -1.12 q 0,-1.88 -0.4,-2.96 -0.4,-1.08 -1.4,-1.56 -0.96,-0.52 -2.76,-0.52 -2.04,0 -3.68,0.6 -1.6,0.56 -3.2,1.4 l -1,-2.08 q 0.52,-0.44 1.92,-1.16 1.4,-0.72 3.24,-1.28 1.84,-0.56 3.68,-0.56 2.84,0 4.48,0.8 1.68,0.76 2.4,2.48 0.72,1.72 0.72,4.6 v 12.84 h 2.36 v 1.76 q -0.8,0.2 -2.04,0.4 -1.2,0.2 -2.12,0.2 -1.12,0 -1.52,-0.36 -0.4,-0.32 -0.4,-1.48 v -1.32 q -1.2,1.2 -2.96,2.2 -1.72,1 -3.92,1 -2.88,0 -4.8,-1.64 -1.88,-1.68 -1.88,-4.8 z m 8.4,3.72 q 1.04,0 2.4,-0.64 1.36,-0.64 2.48,-1.52 v -6.88 q -4.36,0 -6.6,1.36 -2.2,1.32 -2.2,3.48 0,2.16 1.04,3.2 1.08,1 2.88,1 z" />
      <path class="change-fill" fill="#000000"
         d="m 252.38536,368.68484 -2.88,-0.72 v -2.16 l 5.72,-0.72 h 0.12 l 0.84,0.72 v 1.68 l -0.04,0.96 q 1.44,-1.28 3.8,-2.32 2.36,-1.04 4.52,-1.04 2.52,0 3.88,0.96 1.4,0.96 1.96,2.96 0.56,1.96 0.56,5.32 v 11.2 l 2.8,0.28 v 2 h -9.48 v -1.96 l 2.48,-0.32 v -11.24 q 0,-2.36 -0.32,-3.68 -0.32,-1.36 -1.2,-2 -0.88,-0.68 -2.56,-0.68 -1.44,0 -3.08,0.72 -1.64,0.72 -2.92,1.68 v 15.16 l 2.72,0.36 v 1.96 h -9.44 v -1.96 l 2.52,-0.36 z" />
      <path class="change-fill" fill="#000000"
         d="m 285.18535,388.24484 q -2.4,0 -4.4,-1.2 -2,-1.2 -3.2,-3.68 -1.16,-2.48 -1.16,-6.12 0,-3.4 1.4,-6.2 1.4,-2.8 4,-4.4 2.64,-1.64 6.2,-1.64 2.04,0 3.72,0.44 v -7.48 l -4.08,-0.48 v -1.72 l 7.2,-0.72 h 0.12 l 0.88,0.64 v 30.08 h 2.32 v 1.84 q -1.28,0.28 -2.24,0.44 -0.92,0.16 -1.96,0.16 -1.04,0 -1.48,-0.36 -0.44,-0.36 -0.44,-1.52 v -1.28 q -1.12,1.36 -2.96,2.28 -1.8,0.92 -3.92,0.92 z m 1.6,-2.84 q 1.56,0 2.92,-0.68 1.36,-0.72 2.04,-1.64 v -14.64 q -0.32,-0.48 -1.52,-0.84 -1.16,-0.4 -2.48,-0.4 -3.12,0 -5,2.4 -1.84,2.36 -1.84,7.32 0,4.32 1.64,6.4 1.64,2.08 4.24,2.08 z" />
      <path class="change-fill" fill="#000000"
         d="m 304.66527,388.20484 q -1.04,0 -1.8,-0.72 -0.76,-0.72 -0.76,-1.84 0,-1.24 0.88,-2.08 0.92,-0.84 2.12,-0.84 1.24,0 1.88,0.76 0.68,0.72 0.68,1.8 0,1.32 -0.88,2.12 -0.88,0.8 -2.12,0.8 z" />
    </g>
  </g>
</svg>
