<?xml version="1.0" encoding="UTF-8" standalone="no"?>
<!-- Created with Inkscape (http://www.inkscape.org/) -->

<svg
   xmlns="http://www.w3.org/2000/svg"
   width="23.31814mm"
   height="23.264004mm"
   viewBox="0 0 23.31814 23.264004"
   version="1.1">
  <g
     transform="translate(-74.751347,-115.51364)">
    <circle
       id="path20"
       cx="86.394875"
       cy="127.08339"
       r="11.759859"
       style="stroke-width:0.44349205" />
    <path class="change-fill"
       style="fill:#ffffff;stroke-width:0.50507629"
       d="m 320.88241,524.15739 c -8.51429,-1.14889 -16.14518,-4.5841 -23.40522,-10.53638 -5.67526,-4.65296 -11.61126,-14.33354 -13.79995,-22.50529 -1.54184,-5.75665 -1.53569,-16.00474 0.013,-21.71828 2.26194,-8.34477 6.3645,-15.14595 12.85558,-21.31185 4.6796,-4.44516 9.92388,-7.58065 16.39717,-9.80366 4.78224,-1.64229 5.12402,-1.68603 13.24269,-1.6948 9.83107,-0.0106 12.33068,0.52653 19.95052,4.28721 25.08537,12.38061 32.33518,44.32589 15.133,66.68142 -9.1874,11.93971 -25.43614,18.61901 -40.38682,16.60163 z"
       transform="scale(0.26458333)" />
  </g>
  <g
     transform="translate(-74.751347,-115.51364)">
    <g
       aria-label="B"
       transform="matrix(0.54586668,0,0,0.54586668,-14.705977,-35.877902)">
      <path class="change-fill" fill="#000000"
         d="m 176.58773,285.87734 -3.28,-0.48 v -2 h 5.4 q 1.36,0 3.44,-0.16 1.92,-0.16 2.84,-0.16 5.52,0 7.88,1.72 2.4,1.72 2.4,5.04 0,2.84 -1.64,4.88 -1.64,2.04 -4.48,2.56 3.84,-0.08 6.04,1.8 2.2,1.88 2.2,5.12 0,4.04 -2.88,6.6 -2.84,2.56 -9.44,2.56 -1.44,0 -2.76,-0.12 -3.12,-0.12 -3.72,-0.12 h -5.32 v -1.96 l 3.32,-0.4 z m 4.24,10.64 q 0.56,0.04 2.28,0.04 h 2.2 q 2.8,0 4.24,-1.56 1.44,-1.56 1.44,-4.44 0,-2.8 -1.44,-4.08 -1.44,-1.32 -4.92,-1.32 -1.44,0 -2.96,0.16 l -0.84,0.08 z m 0,14.36 q 0.92,0.32 4.16,0.32 4.04,0 5.84,-1.64 1.84,-1.68 1.84,-4.8 0,-3.08 -1.6,-4.48 -1.56,-1.4 -5.08,-1.4 -4.08,0 -5.16,0.08 z" />
    </g>
  </g>
</svg>
